<?xml version="1.0" standalone="no"?>
<!DOCTYPE svg PUBLIC "-//W3C//DTD SVG 20010904//EN"
 "http://www.w3.org/TR/2001/REC-SVG-20010904/DTD/svg10.dtd">
<svg version="1.0" xmlns="http://www.w3.org/2000/svg"
 width="700.000000pt" height="700.000000pt" viewBox="0 0 700.000000 700.000000"
 preserveAspectRatio="xMidYMid meet">
<metadata>
Created by potrace 1.14, written by Peter Selinger 2001-2017
</metadata>
<g transform="translate(0.000000,700.000000) scale(0.100000,-0.100000)"
fill="#000000" stroke="none">
<path d="M0 3500 l0 -3500 3500 0 3500 0 0 3500 0 3500 -3500 0 -3500 0 0
-3500z m6251 3210 c132 -25 274 -130 338 -249 65 -123 61 88 61 -2913 0 -1953
-3 -2742 -11 -2780 -41 -195 -210 -356 -409 -388 -89 -14 -5407 -14 -5504 0
-210 31 -385 206 -416 416 -14 97 -14 5415 0 5504 31 193 184 360 373 406 68
16 5483 20 5568 4z"/>
<path d="M960 3550 l0 -2940 2628 0 2627 0 50 24 c55 25 108 79 134 135 15 33
16 268 16 2771 0 2302 -2 2741 -14 2774 -18 53 -86 124 -141 150 l-45 21
-2627 3 -2628 2 0 -2940z m2310 1363 l5 -851 52 64 c128 156 333 271 550 309
109 19 316 19 424 0 551 -96 901 -592 970 -1375 15 -170 6 -548 -15 -685 -95
-598 -399 -987 -863 -1106 -180 -46 -429 -45 -608 2 -198 51 -386 177 -505
338 -25 33 -48 60 -51 61 -3 0 -11 -39 -18 -87 -7 -49 -19 -134 -28 -190 l-16
-103 -308 0 -309 0 -2 1972 -3 1973 -80 16 c-44 9 -146 29 -227 44 l-148 28 0
224 0 223 588 -2 587 -3 5 -852z"/>
<path d="M3702 3860 c-155 -41 -300 -148 -391 -289 l-41 -64 0 -672 0 -672 38
-59 c86 -132 238 -241 392 -281 86 -22 271 -22 364 1 348 84 512 433 493 1046
-4 102 -13 230 -22 285 -62 404 -233 648 -497 710 -89 21 -246 18 -336 -5z"/>
</g>
</svg>
